<svg xmlns="http://www.w3.org/2000/svg" viewBox="0 0 64 64">
  <defs>
    <linearGradient id="osGrad" x1="0" y1="0" x2="1" y2="1">
      <stop offset="0%" stop-color="#ff8a1e"/>
      <stop offset="55%" stop-color="#fb5e0c"/>
      <stop offset="100%" stop-color="#f23c06"/>
    </linearGradient>
  </defs>
  <rect width="64" height="64" rx="14" fill="#141414"/>
  <g fill="url(#osGrad)" stroke="url(#osGrad)" transform="translate(1 1) scale(0.96)">
    <circle cx="34" cy="33" r="11" fill="none" stroke-width="8.5"/>
    <path d="M54.7 25.5 A22 22 0 0 0 14.5 24.2" fill="none" stroke-width="4.6" stroke-linecap="round"/>
    <path d="M9 18.5 L20.5 20 L13.5 29.5 Z" stroke-width="0"/>
    <path d="M13.3 40.5 A22 22 0 0 0 53.5 41.8" fill="none" stroke-width="4.6" stroke-linecap="round"/>
    <path d="M59 47.5 L47.5 46 L54.5 36.5 Z" stroke-width="0"/>
    <g stroke-width="0">
      <rect x="6.5" y="13.5" width="5" height="5" rx="1" transform="rotate(45 9 16)" opacity="0.9"/>
      <rect x="2.5" y="9.5" width="4.2" height="4.2" rx="1" transform="rotate(45 4.6 11.6)" opacity="0.65"/>
      <rect x="0" y="6.2" width="3.4" height="3.4" rx="0.8" transform="rotate(45 1.7 7.9)" opacity="0.4"/>
    </g>
  </g>
</svg>
